<svg width="410" height="99" viewBox="0 0 410 99" fill="none" xmlns="http://www.w3.org/2000/svg">
<path d="M2.72365 63.9417C114.39 113.54 253.146 89.602 358.434 28.7992C353.657 30.3926 348.928 31.8718 344.147 33.0316C337.236 34.6935 333.97 36.6028 327.793 32.0988C325.558 30.5048 325.225 27.8 326.517 25.4595L327.487 23.6846C330.029 19.0396 338.249 23.1137 335.894 27.8915C341.436 16.8257 384.042 6.82618 399.526 1.93945C399.653 1.83127 399.737 1.75915 399.9 1.69318C400.824 0.978143 402.024 0.757473 403.163 0.807693C407.625 -0.298501 410.898 4.05575 408.707 8.25566C400.535 23.6049 392.285 38.9479 384.112 54.2971C381.509 59.213 372.796 54.9032 375.327 49.9029C380.262 40.0104 385.19 30.1963 390.161 20.3461C280.332 93.4752 123.27 126.529 1.3287 68.0467C-1.17294 66.8256 0.173386 62.835 2.72365 63.9417Z" fill="#FF4135"/>
</svg>
