<svg width="216" height="216" viewBox="0 0 216 216" fill="none" xmlns="http://www.w3.org/2000/svg">
<path d="M20.939 108C20.9391 60.5258 59.4243 22.0406 106.898 22.0406C154.372 22.0406 192.857 60.5259 192.857 108C192.857 155.474 154.372 193.959 106.898 193.959C59.4243 193.959 20.939 155.474 20.939 108ZM169.867 108C169.867 73.2233 141.675 45.0314 106.898 45.0314C72.1217 45.0314 43.9298 73.2233 43.9298 108C43.9298 142.776 72.1217 170.968 106.898 170.968C141.675 170.968 169.867 142.776 169.867 108Z" fill="#DBDFDE"/>
<path d="M108.55 11.7784L109.729 11.5633C109.841 11.5416 109.942 11.4851 110.019 11.402C110.101 11.3161 110.149 11.2024 110.151 11.0834L110.635 1.31148C110.643 1.18897 110.608 1.06759 110.536 0.968101C110.467 0.87839 110.371 0.811996 110.263 0.777784L109.113 0.459229L109.134 0L118.169 0.446818L118.029 3.34281L117.454 3.31385L116.974 1.45214C116.952 1.36625 116.913 1.28589 116.858 1.21632C116.828 1.18448 116.793 1.1592 116.753 1.14209C116.713 1.12499 116.67 1.11645 116.626 1.11703L112.29 0.897765L112.046 5.79613L114.922 5.94094C114.968 5.94696 115.014 5.94385 115.059 5.93178C115.104 5.91971 115.146 5.89891 115.182 5.8706C115.241 5.81038 115.286 5.73849 115.315 5.65961L115.857 4.20333H116.341L116.13 8.49769L115.642 8.47286L115.249 6.97936C115.227 6.8966 115.189 6.8191 115.137 6.75181C115.105 6.71771 115.065 6.69114 115.022 6.67398C114.978 6.65681 114.931 6.64949 114.884 6.65252L112.009 6.50772L111.781 11.1455C111.774 11.2051 111.78 11.2656 111.799 11.3228C111.817 11.38 111.848 11.4324 111.889 11.4764C111.965 11.5626 112.062 11.628 112.17 11.6667L113.445 12.006L113.42 12.4652L108.53 12.2211L108.55 11.7784Z" fill="white"/>
<path d="M121.26 12.7383L122.464 12.6555C122.58 12.6473 122.69 12.6023 122.778 12.5273C122.868 12.45 122.927 12.3427 122.944 12.2253L124.508 2.56917C124.531 2.44964 124.509 2.32584 124.446 2.22165C124.383 2.12537 124.294 2.04923 124.189 2.00239L123.072 1.55143L123.147 1.10048L127.867 1.86585L127.793 2.3168L126.601 2.39127C126.487 2.40363 126.379 2.44972 126.291 2.52366C126.197 2.60199 126.137 2.71282 126.121 2.83394L124.553 12.4818C124.53 12.5999 124.552 12.7227 124.615 12.8251C124.678 12.9232 124.769 12.9998 124.876 13.0444L125.981 13.4995L125.906 13.9504L121.186 13.1851L121.26 12.7383Z" fill="white"/>
<path d="M129.82 14.1366L131.028 14.1573C131.143 14.159 131.255 14.1258 131.351 14.0621C131.451 13.9982 131.523 13.8994 131.554 13.7849L134.313 4.49708C134.357 4.38256 134.357 4.2558 134.313 4.14128C134.27 4.03657 134.192 3.94927 134.094 3.89305L132.985 3.2518L133.118 2.80912L136.072 3.68619L139.311 13.4623L139.725 14.8399L142.104 6.82628C142.148 6.71458 142.148 6.59046 142.104 6.47876C142.056 6.37655 141.978 6.29139 141.88 6.23467L140.854 5.58928L140.987 5.1466L144.793 6.28019L144.665 6.71872H143.452C143.339 6.71407 143.226 6.74438 143.13 6.8056C143.078 6.83555 143.034 6.87553 142.998 6.92315C142.963 6.97078 142.937 7.02507 142.923 7.08279L140.374 15.6632L139.522 17.5994L138.955 17.4339L135.439 6.85111L134.967 5.33692H134.942L132.356 14.0249C132.312 14.138 132.312 14.2635 132.356 14.3766C132.405 14.4779 132.483 14.5627 132.58 14.6207L133.602 15.2661L133.473 15.7046L129.675 14.5751L129.82 14.1366Z" fill="white"/>
<path d="M144.785 18.9315L145.951 19.1922C146.064 19.2133 146.181 19.2003 146.287 19.155C146.394 19.1051 146.481 19.0186 146.531 18.9109L150.784 10.107C150.841 9.99907 150.857 9.87426 150.829 9.75538C150.799 9.64622 150.737 9.54841 150.651 9.47406L149.716 8.72936L149.915 8.31565L154.574 10.5663C154.96 10.7551 155.329 10.9765 155.678 11.2282C156.063 11.5029 156.417 11.8192 156.733 12.1715C157.066 12.5498 157.352 12.9664 157.585 13.4126C157.831 13.8847 157.998 14.3932 158.082 14.9185C158.175 15.512 158.175 16.1164 158.082 16.7099C157.958 17.4294 157.728 18.1264 157.399 18.7785C157.014 19.6232 156.461 20.3806 155.773 21.0043C155.195 21.5259 154.508 21.913 153.763 22.1378C153.034 22.3448 152.27 22.3956 151.52 22.2868C150.722 22.1731 149.947 21.9343 149.224 21.5793L144.599 19.3453L144.785 18.9315ZM149.646 21.0001C150.212 21.2874 150.829 21.4577 151.462 21.5007C152.016 21.5254 152.567 21.4131 153.068 21.1739C153.604 20.9072 154.081 20.5325 154.466 20.0734C154.933 19.5177 155.326 18.9029 155.633 18.2448C155.993 17.5233 156.239 16.75 156.361 15.9528C156.468 15.2742 156.44 14.5809 156.278 13.9132C156.126 13.2963 155.836 12.722 155.43 12.2335C155.002 11.7232 154.469 11.3124 153.866 11.0296L152.48 10.3594L147.776 20.0941L149.646 21.0001Z" fill="white"/>
<path d="M166.601 31.6574L167.8 32.278C167.901 32.3289 168.017 32.3435 168.127 32.3193C168.246 32.2968 168.353 32.2303 168.425 32.1332L170.721 29.2951L171.929 22.3695C171.952 22.244 171.962 22.1164 171.958 21.9889C171.959 21.8641 171.923 21.7418 171.855 21.6372L171.35 20.9257L171.64 20.5699L175.057 23.3335L174.768 23.6893L173.39 22.9942L172.517 28.2029L172.289 29.3944L178.243 26.9783L177.349 25.7785L177.639 25.4227L180.337 27.603L180.047 27.9629L179.273 27.6526C179.158 27.6096 179.034 27.5996 178.913 27.6237C178.786 27.6436 178.662 27.6755 178.541 27.7188L172.037 30.2714L169.704 33.1674C169.622 33.258 169.577 33.3763 169.58 33.4984C169.581 33.612 169.622 33.7216 169.695 33.8087L170.56 34.8595L170.27 35.2153L166.311 32.0132L166.601 31.6574Z" fill="white"/>
<path d="M178.293 43.3696C177.717 42.7679 177.274 42.0519 176.994 41.268C176.745 40.5625 176.662 39.8097 176.749 39.067C176.852 38.2996 177.105 37.56 177.494 36.8909C177.934 36.1277 178.493 35.4393 179.149 34.8513C179.769 34.2684 180.48 33.7917 181.255 33.4405C181.966 33.1152 182.733 32.9284 183.514 32.8903C184.273 32.8675 185.028 33.0086 185.727 33.304C186.487 33.6301 187.167 34.1187 187.717 34.7354C188.322 35.3595 188.779 36.1118 189.054 36.9364C189.284 37.6587 189.349 38.4237 189.244 39.1746C189.123 39.9266 188.856 40.6477 188.458 41.2969C188.025 42.0131 187.489 42.6626 186.869 43.2248C186.486 43.5781 186.07 43.8953 185.628 44.1722C185.19 44.4493 184.722 44.6769 184.234 44.8507C183.753 45.0245 183.253 45.1398 182.744 45.1941C182.234 45.2494 181.719 45.2215 181.218 45.1114C180.689 44.9951 180.182 44.7999 179.712 44.5322C179.182 44.2191 178.704 43.8271 178.293 43.3696ZM178.926 43.0138C179.306 43.4385 179.793 43.753 180.337 43.924C180.865 44.0818 181.424 44.1116 181.967 44.0109C182.578 43.8959 183.166 43.6776 183.704 43.3655C184.331 43.007 184.915 42.5766 185.442 42.083C186.047 41.5367 186.59 40.9247 187.06 40.2585C187.463 39.7081 187.762 39.0883 187.941 38.4299C188.097 37.8543 188.11 37.2491 187.978 36.6675C187.828 36.0548 187.516 35.4935 187.076 35.0416C186.685 34.5933 186.174 34.2661 185.603 34.0983C185.063 33.9547 184.497 33.9363 183.948 34.0445C183.348 34.177 182.774 34.4106 182.252 34.7354C181.665 35.0899 181.117 35.506 180.618 35.9766C180.02 36.5173 179.483 37.1222 179.017 37.7804C178.616 38.3336 178.311 38.9504 178.115 39.6048C177.95 40.1824 177.927 40.7914 178.049 41.3797C178.19 41.9962 178.5 42.5617 178.942 43.0138H178.926Z" fill="white"/>
<path d="M194.664 45.4092C194.771 45.3463 194.848 45.2437 194.879 45.1238C194.914 45.012 194.914 44.8922 194.879 44.7804L194.465 43.6716L194.85 43.4193L197.481 47.3909L197.097 47.6433L196.24 46.8159C196.154 46.738 196.045 46.6889 195.93 46.6752C195.809 46.6594 195.687 46.6888 195.587 46.7579L189.637 50.7006C189.45 50.8262 189.272 50.9644 189.103 51.1144C188.917 51.2758 188.749 51.4576 188.603 51.6563C188.45 51.8615 188.326 52.0871 188.235 52.3265C188.134 52.5798 188.078 52.8485 188.069 53.1209C188.061 53.4363 188.106 53.7509 188.201 54.0517C188.322 54.4253 188.496 54.7793 188.719 55.1026C188.932 55.4396 189.196 55.7423 189.501 56.0003C189.749 56.2129 190.028 56.3872 190.328 56.5175C190.591 56.6296 190.87 56.6968 191.156 56.716C191.418 56.7346 191.683 56.7193 191.942 56.6705C192.185 56.6278 192.422 56.557 192.649 56.4595C192.851 56.3731 193.045 56.2693 193.228 56.1493L199.149 52.2231C199.254 52.1625 199.331 52.0629 199.364 51.9459C199.397 51.838 199.397 51.7228 199.364 51.6149L198.992 50.4648L199.372 50.2125L201.565 53.5222L201.18 53.7745L200.266 52.9843C200.18 52.9094 200.073 52.8619 199.96 52.8478C199.842 52.8325 199.722 52.862 199.625 52.9306L193.555 56.956C193.193 57.2019 192.791 57.3838 192.368 57.4938C191.99 57.5868 191.601 57.6175 191.213 57.5848C190.844 57.5486 190.482 57.4609 190.138 57.3242C189.8 57.1889 189.478 57.0168 189.178 56.8112C188.891 56.6123 188.624 56.3864 188.379 56.1368C188.157 55.9154 187.956 55.6729 187.779 55.4128C187.403 54.863 187.123 54.253 186.952 53.609C186.798 53.0845 186.748 52.5352 186.803 51.9914C186.865 51.5116 187.032 51.0512 187.291 50.6427C187.539 50.2509 187.868 49.9166 188.255 49.6622L194.664 45.4092Z" fill="white"/>
<path d="M193.352 63.1741L194.089 64.1215C194.161 64.2083 194.258 64.2716 194.366 64.3036C194.481 64.3359 194.603 64.3241 194.709 64.2705L203.6 60.1912C203.712 60.1432 203.803 60.0566 203.857 59.9471C203.904 59.8435 203.918 59.7281 203.898 59.6162L203.654 58.4454L204.068 58.2551L205.984 62.4253C206.213 62.9093 206.397 63.4134 206.534 63.9312C206.64 64.3299 206.701 64.7393 206.716 65.1517C206.728 65.4733 206.687 65.7947 206.596 66.1032C206.52 66.3644 206.403 66.6117 206.248 66.8355C206.102 67.0435 205.923 67.2266 205.719 67.3774C205.519 67.5221 205.306 67.6468 205.082 67.7498C204.667 67.9506 204.214 68.0579 203.754 68.0642C203.345 68.0687 202.938 68 202.554 67.8615C202.197 67.7355 201.863 67.5555 201.561 67.3278C201.294 67.1314 201.054 66.902 200.845 66.6452L198.239 71.5063C198.194 71.5874 198.155 71.6718 198.123 71.7587C198.084 71.856 198.051 71.9555 198.023 72.0565C197.995 72.1527 197.975 72.2509 197.961 72.3503C197.949 72.4367 197.949 72.5245 197.961 72.6109L198.177 73.6659L197.763 73.8603L196.968 72.1269C196.869 71.9256 196.794 71.7131 196.745 71.4939C196.712 71.3314 196.712 71.164 196.745 71.0016C196.773 70.8367 196.828 70.6775 196.906 70.5299C196.989 70.3727 197.093 70.1907 197.217 69.9756L199.831 65.3502L199.471 63.8898L195.413 65.7557C195.304 65.7992 195.215 65.8798 195.16 65.9832C195.111 66.0847 195.095 66.199 195.115 66.3101L195.413 67.6174L194.999 67.8119L192.939 63.3686L193.352 63.1741ZM200.013 63.6333C200.033 63.7257 200.058 63.8169 200.088 63.9064L200.224 64.2705C200.274 64.4001 200.324 64.5242 200.373 64.6428L200.502 64.9324C200.666 65.3113 200.905 65.6532 201.205 65.9377C201.468 66.1727 201.776 66.3515 202.111 66.4631C202.427 66.5653 202.761 66.602 203.092 66.5707C203.431 66.5368 203.763 66.4459 204.072 66.3018C204.447 66.1412 204.79 65.9125 205.082 65.6274C205.322 65.3886 205.499 65.0945 205.599 64.771C205.692 64.4386 205.711 64.0896 205.653 63.7492C205.579 63.33 205.447 62.9233 205.26 62.5411L204.755 61.4407L200.013 63.6333Z" fill="white"/>
<path d="M201.325 83.6405L201.821 84.7286C201.871 84.8311 201.95 84.9162 202.049 84.9727C202.153 85.0311 202.276 85.0488 202.392 85.0223L211.987 83.1193C212.107 83.0992 212.216 83.036 212.293 82.9414C212.364 82.853 212.404 82.7442 212.409 82.6311L212.454 81.4437L212.905 81.3568L213.911 86.429C213.993 86.8518 214.038 87.2809 214.047 87.7115C214.06 88.1847 214.02 88.658 213.927 89.1222C213.827 89.6124 213.669 90.0888 213.456 90.5413C213.227 91.0224 212.921 91.4626 212.549 91.8445C212.129 92.273 211.643 92.6319 211.11 92.9077C210.459 93.243 209.762 93.48 209.041 93.611C208.134 93.8122 207.195 93.8291 206.281 93.6607C205.522 93.5138 204.804 93.2001 204.18 92.7422C203.572 92.2878 203.07 91.7078 202.707 91.0419C202.314 90.3369 202.035 89.5747 201.879 88.783L200.87 83.7357L201.325 83.6405ZM202.612 88.7582C202.721 89.3824 202.956 89.9779 203.303 90.5082C203.619 90.9692 204.045 91.3433 204.544 91.5963C205.075 91.8644 205.655 92.0207 206.248 92.0555C206.974 92.0964 207.701 92.0408 208.412 91.89C209.206 91.7407 209.972 91.47 210.684 91.0874C211.289 90.7633 211.826 90.3249 212.264 89.7966C212.662 89.3009 212.945 88.7229 213.091 88.1045C213.243 87.4562 213.251 86.7824 213.112 86.1311L212.814 84.6252L202.206 86.7268L202.612 88.7582Z" fill="white"/>
<path d="M203.952 98.5922L204.275 99.7464C204.309 99.8547 204.375 99.9499 204.465 100.019C204.559 100.094 204.677 100.131 204.796 100.123L214.564 99.7092C214.687 99.7079 214.805 99.6607 214.895 99.5768C214.98 99.5008 215.039 99.3991 215.061 99.2872L215.276 98.1122H215.735L215.93 102.671C215.959 103.206 215.939 103.742 215.872 104.272C215.818 104.681 215.72 105.082 215.578 105.468C215.463 105.766 215.304 106.045 215.106 106.296C214.932 106.505 214.727 106.688 214.498 106.837C214.283 106.971 214.048 107.071 213.803 107.135C213.563 107.195 213.318 107.231 213.071 107.243C212.611 107.27 212.151 107.198 211.722 107.032C211.343 106.881 210.993 106.665 210.688 106.395C210.407 106.146 210.166 105.856 209.972 105.534C209.796 105.254 209.657 104.952 209.558 104.637L205.317 108.145C205.244 108.203 205.175 108.267 205.111 108.335C205.04 108.414 204.97 108.492 204.904 108.575C204.843 108.654 204.788 108.737 204.738 108.823C204.697 108.9 204.666 108.982 204.647 109.067L204.445 110.118H203.989L203.907 108.215C203.892 107.991 203.903 107.766 203.94 107.545C203.969 107.381 204.028 107.224 204.114 107.082C204.204 106.941 204.316 106.816 204.445 106.709C204.581 106.598 204.742 106.465 204.937 106.296L209.107 102.986L209.327 101.501L204.867 101.691C204.749 101.69 204.634 101.731 204.544 101.807C204.462 101.884 204.404 101.983 204.378 102.092L204.18 103.499H203.721L203.509 98.6128L203.952 98.5922ZM209.943 101.534C209.926 101.627 209.917 101.721 209.914 101.815C209.914 101.935 209.914 102.067 209.914 102.204C209.914 102.34 209.914 102.477 209.914 102.618C209.914 102.758 209.914 102.853 209.914 102.936C209.922 103.344 210.012 103.747 210.179 104.119C210.325 104.436 210.537 104.718 210.799 104.947C211.054 105.161 211.35 105.321 211.668 105.418C211.995 105.518 212.337 105.56 212.678 105.543C213.087 105.535 213.49 105.452 213.869 105.298C214.18 105.168 214.454 104.963 214.668 104.703C214.883 104.431 215.033 104.114 215.106 103.776C215.196 103.369 215.231 102.951 215.21 102.535L215.156 101.323L209.943 101.534Z" fill="white"/>
<path d="M204.267 112.911L204.424 114.098C204.439 114.211 204.491 114.316 204.573 114.396C204.653 114.484 204.764 114.537 204.883 114.545L214.614 115.53C214.735 115.545 214.857 115.516 214.957 115.447C215.052 115.384 215.125 115.293 215.164 115.186L215.545 114.053L216 114.098L215.094 123.08L212.198 122.79L212.26 122.203L214.159 121.818C214.247 121.801 214.331 121.764 214.403 121.71C214.436 121.683 214.462 121.648 214.481 121.61C214.501 121.572 214.512 121.53 214.515 121.487L214.928 117.201L210.208 116.738L209.931 119.489C209.921 119.534 209.921 119.581 209.93 119.627C209.939 119.672 209.958 119.716 209.984 119.754C210.038 119.816 210.104 119.865 210.179 119.898L211.565 120.507L211.515 121.007L207.324 120.593L207.378 120.093L208.838 119.77C208.926 119.755 209.009 119.721 209.082 119.671C209.116 119.639 209.143 119.6 209.161 119.558C209.18 119.515 209.19 119.469 209.19 119.423L209.471 116.659L204.229 116.129L203.72 121.152C203.712 121.194 203.713 121.238 203.723 121.28C203.733 121.322 203.752 121.362 203.778 121.396C203.84 121.461 203.917 121.511 204.002 121.541L206.025 122.298L205.967 122.885L202.831 122.571L203.812 112.874L204.267 112.911Z" fill="white"/>
<path d="M202.86 125.558L202.91 126.385C202.923 126.507 202.966 126.623 203.034 126.725C203.103 126.831 203.191 126.924 203.294 126.998L211.329 132.628L213.058 134.151L212.947 134.598L201.011 136.104C200.887 136.122 200.768 136.163 200.659 136.224C200.549 136.28 200.457 136.364 200.39 136.468L199.976 137.171L199.529 137.059L200.584 132.827L201.031 132.939L200.977 134.498L204.929 134.01L205.979 129.799L202.736 127.606L202.02 128.975L201.573 128.864L202.43 125.446L202.86 125.558ZM205.756 133.907L209.682 133.394L210.924 133.27V133.245L206.662 130.274L205.756 133.907Z" fill="white"/>
<path d="M199.132 139.926L198.963 141.122C198.945 141.237 198.964 141.354 199.016 141.457C199.07 141.561 199.157 141.643 199.265 141.689L208.176 145.59C208.285 145.645 208.411 145.657 208.528 145.623C208.636 145.589 208.732 145.523 208.801 145.433L209.513 144.456L209.926 144.639L208.416 148.118L200.001 147.551L198.16 147.381V147.406L205.644 154.481L204.147 157.898L203.733 157.716L203.956 156.549C203.974 156.435 203.955 156.318 203.903 156.214C203.851 156.105 203.761 156.018 203.65 155.97L194.664 152.048C194.556 151.996 194.432 151.986 194.316 152.019C194.208 152.057 194.113 152.126 194.043 152.218L193.328 153.169L192.914 152.983L194.825 148.627L195.239 148.809L195.028 149.98C195.008 150.093 195.024 150.21 195.074 150.315C195.125 150.423 195.215 150.509 195.326 150.555L204.614 154.621V154.588L203.58 153.633L197.395 147.766L195.905 146.111L196.087 145.698L206.724 146.409L208.164 146.529V146.504L198.909 142.45C198.801 142.396 198.677 142.385 198.561 142.421C198.453 142.455 198.358 142.522 198.288 142.611L197.56 143.555L197.146 143.373L198.739 139.74L199.132 139.926Z" fill="white"/>
<path d="M187.217 162.9L186.724 163.988C186.679 164.092 186.667 164.208 186.691 164.319C186.717 164.436 186.784 164.539 186.882 164.608L194.623 170.562C194.717 170.639 194.836 170.68 194.958 170.678C195.072 170.67 195.182 170.628 195.272 170.558L196.191 169.796L196.555 170.074L193.766 173.71C193.417 174.167 193.017 174.584 192.575 174.951C192.182 175.283 191.734 175.544 191.251 175.721C190.809 175.884 190.334 175.933 189.869 175.866C189.359 175.782 188.88 175.566 188.479 175.241C188.026 174.906 187.645 174.484 187.357 174C187.103 173.559 186.942 173.07 186.886 172.564C186.834 172.058 186.886 171.547 187.039 171.062C187.208 170.539 187.467 170.049 187.804 169.614C187.894 169.501 187.995 169.397 188.106 169.304C188.228 169.202 188.357 169.108 188.491 169.023C188.623 168.932 188.761 168.85 188.905 168.779C189.059 168.704 189.204 168.638 189.339 168.58L185.852 165.903C185.756 165.827 185.634 165.79 185.512 165.8C185.398 165.809 185.289 165.854 185.202 165.928L184.217 166.797L183.853 166.516L186.836 162.631L187.217 162.9ZM189.662 168.799C189.572 168.873 189.487 168.952 189.405 169.035C189.314 169.122 189.219 169.217 189.124 169.321C189.029 169.424 188.934 169.523 188.843 169.635C188.752 169.747 188.665 169.854 188.586 169.958C188.387 170.203 188.236 170.484 188.139 170.785C188.063 171.034 188.03 171.295 188.044 171.555C188.063 171.792 188.118 172.025 188.206 172.246C188.292 172.449 188.397 172.645 188.52 172.829C188.629 172.994 188.754 173.147 188.892 173.288C189.002 173.396 189.116 173.498 189.236 173.594C189.533 173.826 189.858 174.019 190.204 174.169C190.532 174.309 190.886 174.374 191.242 174.36C191.622 174.338 191.991 174.226 192.318 174.033C192.741 173.772 193.108 173.431 193.398 173.028L194.043 172.175L189.662 168.799Z" fill="white"/>
<path d="M179.137 172.974L178.504 173.992C178.446 174.089 178.42 174.202 178.429 174.314C178.438 174.434 178.491 174.546 178.578 174.629L185.479 181.554C185.561 181.645 185.675 181.702 185.798 181.711C185.91 181.72 186.023 181.694 186.12 181.637L187.134 181.004L187.457 181.331L184.044 184.732L183.721 184.405L184.391 183.362C184.452 183.265 184.481 183.15 184.474 183.035C184.468 182.91 184.413 182.793 184.321 182.708L177.072 175.431L173.895 178.596C173.855 178.634 173.828 178.683 173.816 178.737C173.806 178.789 173.806 178.842 173.816 178.894C173.828 178.948 173.846 179.001 173.87 179.051L173.94 179.184L175.181 181.306L174.768 181.72L172.252 179.192L178.81 172.659L179.137 172.974Z" fill="white"/>
<path d="M170.688 181.277L170.213 181.947C170.145 182.048 170.104 182.165 170.093 182.286C170.079 182.413 170.089 182.54 170.122 182.663L172.819 192.1L173.204 194.375L172.84 194.648L162.616 188.306C162.507 188.244 162.388 188.2 162.265 188.178C162.145 188.153 162.021 188.16 161.905 188.198L161.127 188.476L160.854 188.107L164.338 185.484L164.611 185.853L163.589 187.032L166.965 189.138L170.436 186.527L169.294 182.779L167.875 183.395L167.602 183.027L170.415 180.909L170.688 181.277ZM167.668 189.551L171.061 191.62L172.116 192.319L170.668 187.301L167.668 189.551Z" fill="white"/>
<path d="M158.669 190.019L157.797 190.846C157.713 190.923 157.655 191.024 157.631 191.136C157.609 191.252 157.628 191.372 157.685 191.475L162.236 200.018C162.288 200.13 162.382 200.217 162.496 200.262C162.602 200.304 162.718 200.311 162.827 200.283L164.069 199.96L164.288 200.374L161.57 201.826L152.393 197.155L151.119 196.477L155.062 203.849C155.114 203.958 155.206 204.042 155.318 204.085C155.424 204.123 155.539 204.13 155.649 204.106L156.828 203.841L157.048 204.255L153.543 206.129L153.328 205.715L154.201 204.888C154.285 204.808 154.344 204.706 154.371 204.594C154.399 204.477 154.382 204.354 154.321 204.251L150.097 196.361L149.34 194.383L149.861 194.106L159.791 199.158L161.189 199.898H161.214L156.928 191.893C156.876 191.783 156.784 191.698 156.671 191.653C156.563 191.62 156.448 191.62 156.34 191.653L155.161 191.914L154.942 191.5L158.438 189.63L158.669 190.019Z" fill="white"/>
<path d="M142.294 197.937L141.131 198.632C141.035 198.692 140.962 198.782 140.925 198.889C140.879 199.002 140.879 199.128 140.925 199.24L144.321 208.942L146.994 208.007C147.038 207.995 147.079 207.974 147.115 207.946C147.15 207.917 147.18 207.882 147.201 207.842C147.236 207.759 147.252 207.67 147.246 207.581L147.155 205.558L147.689 205.372L148.678 208.197L138.872 211.627L137.884 208.801L138.426 208.611L139.617 210.266C139.667 210.338 139.732 210.397 139.808 210.44C139.848 210.458 139.892 210.468 139.936 210.468C139.98 210.468 140.024 210.458 140.064 210.44L142.77 209.492L139.373 199.791C139.356 199.732 139.327 199.677 139.289 199.63C139.251 199.582 139.203 199.543 139.15 199.514C139.052 199.457 138.939 199.434 138.827 199.447L137.487 199.625L137.333 199.212L142.141 197.528L142.294 197.937Z" fill="white"/>
<path d="M131.823 204.619L131.268 204.726L130.288 203.117C130.234 203.033 130.161 202.962 130.077 202.91C129.994 202.851 129.905 202.801 129.812 202.761C129.577 202.665 129.335 202.588 129.088 202.529C128.84 202.472 128.587 202.426 128.335 202.393C128.096 202.364 127.856 202.349 127.615 202.347C127.409 202.348 127.204 202.367 127.003 202.405C126.653 202.469 126.316 202.591 126.006 202.765C125.734 202.919 125.496 203.126 125.306 203.373C125.126 203.618 125.004 203.901 124.951 204.201C124.893 204.54 124.902 204.887 124.975 205.223C125.048 205.697 125.296 206.126 125.67 206.427C126.069 206.724 126.53 206.927 127.019 207.018C127.254 207.065 127.492 207.098 127.731 207.118L128.426 207.18L129.121 207.238C129.357 207.256 129.591 207.286 129.824 207.329C130.474 207.434 131.08 207.721 131.574 208.156C132.047 208.595 132.365 209.176 132.48 209.811C132.584 210.285 132.584 210.776 132.48 211.251C132.376 211.715 132.177 212.153 131.897 212.537C131.61 212.936 131.245 213.274 130.825 213.53C130.374 213.81 129.874 214.005 129.353 214.105C129.055 214.163 128.753 214.209 128.447 214.238C128.14 214.267 127.847 214.279 127.553 214.287C127.259 214.296 126.974 214.287 126.696 214.262L125.89 214.196L125.31 211.3L125.865 211.189L126.742 212.699C126.794 212.784 126.866 212.855 126.953 212.905C127.044 212.959 127.127 213.005 127.197 213.038C127.362 213.113 127.536 213.169 127.714 213.203C127.906 213.239 128.099 213.263 128.293 213.278C128.488 213.292 128.683 213.292 128.877 213.278C129.045 213.271 129.212 213.252 129.377 213.22C129.701 213.162 130.013 213.05 130.3 212.889C130.543 212.758 130.756 212.577 130.925 212.359C131.081 212.157 131.191 211.922 131.247 211.673C131.301 211.412 131.301 211.143 131.247 210.882C131.2 210.645 131.128 210.414 131.032 210.191C130.939 209.974 130.807 209.775 130.643 209.604C130.466 209.419 130.257 209.266 130.027 209.153C129.744 209.013 129.439 208.922 129.125 208.884C128.906 208.851 128.682 208.826 128.463 208.806L127.793 208.748L127.106 208.673C126.87 208.644 126.622 208.607 126.361 208.557C126.065 208.493 125.774 208.41 125.488 208.309C125.193 208.214 124.914 208.075 124.661 207.895C124.399 207.698 124.176 207.454 124.003 207.175C123.798 206.842 123.657 206.473 123.589 206.087C123.504 205.622 123.504 205.146 123.589 204.681C123.669 204.193 123.857 203.729 124.14 203.324C124.465 202.87 124.877 202.484 125.352 202.19C125.956 201.827 126.622 201.578 127.317 201.458C127.59 201.402 127.866 201.37 128.145 201.363C128.442 201.363 128.749 201.363 129.071 201.363C129.394 201.363 129.713 201.392 130.044 201.421C130.374 201.45 130.701 201.483 131.028 201.52L131.823 204.619Z" fill="white"/>
<path d="M111.285 204.213L110.118 204.466C110.008 204.494 109.909 204.554 109.833 204.639C109.753 204.728 109.71 204.843 109.713 204.962L109.551 214.742C109.547 214.864 109.587 214.983 109.663 215.077C109.735 215.165 109.832 215.228 109.94 215.259L111.103 215.545V216L102.059 215.855L102.104 212.959H102.679L103.221 214.804C103.246 214.89 103.288 214.969 103.346 215.036C103.408 215.096 103.491 215.128 103.577 215.127L107.921 215.197L108 210.291L105.125 210.245C105.079 210.24 105.032 210.244 104.988 210.257C104.944 210.271 104.903 210.294 104.868 210.324C104.809 210.384 104.765 210.458 104.74 210.539L104.247 212.012H103.763L103.834 207.713H104.318L104.76 209.194C104.785 209.276 104.826 209.352 104.88 209.418C104.914 209.451 104.954 209.476 104.999 209.493C105.043 209.509 105.09 209.516 105.137 209.513L108.012 209.558L108.087 204.917C108.091 204.856 108.082 204.796 108.062 204.739C108.043 204.683 108.011 204.63 107.971 204.586C107.89 204.504 107.791 204.443 107.681 204.408L106.399 204.114V203.655L111.297 203.733L111.285 204.213Z" fill="white"/>
<path d="M93.0189 202.227C93.8438 202.336 94.6363 202.618 95.344 203.055C95.9744 203.455 96.505 203.995 96.8955 204.631C97.2953 205.298 97.5583 206.038 97.6692 206.807C97.7941 207.679 97.783 208.566 97.6361 209.434C97.5094 210.276 97.2438 211.091 96.85 211.846C96.4952 212.541 96.0107 213.162 95.4226 213.675C94.8453 214.168 94.1676 214.529 93.4367 214.734C92.6399 214.952 91.8048 214.99 90.9916 214.846C90.1293 214.731 89.3037 214.424 88.5754 213.948C87.946 213.519 87.4214 212.953 87.0405 212.293C86.6599 211.624 86.4166 210.885 86.3247 210.121C86.2193 209.296 86.2361 208.459 86.3743 207.639C86.4562 207.125 86.585 206.619 86.7591 206.129C86.9342 205.64 87.1602 205.172 87.4335 204.73C87.7031 204.295 88.0255 203.895 88.3933 203.539C88.7579 203.18 89.1768 202.881 89.6345 202.654C90.1208 202.42 90.6397 202.261 91.1736 202.182C91.7872 202.1 92.41 202.115 93.0189 202.227ZM92.7416 202.898C92.1786 202.794 91.5979 202.845 91.0619 203.047C90.5483 203.247 90.0911 203.569 89.7297 203.986C89.3205 204.455 88.9946 204.991 88.7657 205.57C88.498 206.236 88.3065 206.93 88.1948 207.639C88.0606 208.444 88.0134 209.261 88.0541 210.076C88.0847 210.757 88.2346 211.428 88.4968 212.057C88.7335 212.605 89.0981 213.087 89.5601 213.464C90.0591 213.85 90.6515 214.097 91.277 214.18C91.8623 214.29 92.4669 214.23 93.0189 214.006C93.5334 213.786 93.9896 213.449 94.3511 213.021C94.747 212.548 95.0591 212.011 95.2737 211.433C95.5175 210.795 95.6936 210.134 95.7991 209.459C95.9324 208.663 95.9782 207.854 95.9356 207.047C95.9135 206.362 95.7736 205.686 95.5219 205.049C95.2901 204.492 94.925 204 94.4586 203.618C93.9634 203.224 93.3693 202.975 92.7416 202.898Z" fill="white"/>
<path d="M83.4576 201.102L82.266 201.003C82.1525 200.997 82.0398 201.026 81.9433 201.086C81.8421 201.148 81.7671 201.245 81.7323 201.359L78.7162 210.651C78.6726 210.765 78.6726 210.892 78.7162 211.006C78.7593 211.111 78.8347 211.2 78.9314 211.259L79.9574 211.871L79.8126 212.31L75.4477 210.895C74.9371 210.733 74.4415 210.526 73.9666 210.278C73.6023 210.087 73.2608 209.855 72.9488 209.587C72.7038 209.377 72.4943 209.128 72.3282 208.851C72.1894 208.616 72.0889 208.36 72.0303 208.094C71.981 207.845 71.9685 207.59 71.9931 207.337C72.0204 207.091 72.0731 206.848 72.1503 206.613C72.2842 206.174 72.5114 205.769 72.8164 205.425C73.0912 205.121 73.4176 204.868 73.7804 204.677C74.115 204.503 74.4732 204.379 74.8437 204.308C75.1693 204.245 75.5014 204.223 75.8325 204.242L74.0287 199.067C73.9987 198.979 73.9628 198.893 73.9211 198.81C73.8766 198.714 73.8255 198.622 73.768 198.533C73.7169 198.447 73.6587 198.365 73.5942 198.289C73.5378 198.223 73.4724 198.166 73.3998 198.119L72.4772 197.561L72.6178 197.122L74.43 197.714C74.6443 197.778 74.851 197.866 75.0464 197.974C75.1893 198.06 75.3155 198.171 75.4188 198.301C75.5195 198.434 75.5977 198.582 75.6505 198.74C75.7125 198.905 75.7787 199.108 75.8491 199.34L77.504 204.399L78.8196 205.123L80.1974 200.875C80.2389 200.764 80.2389 200.642 80.1974 200.531C80.1557 200.428 80.0836 200.34 79.9905 200.279L78.8238 199.613L78.9645 199.174L83.6148 200.684L83.4576 201.102ZM78.6128 205.686C78.5318 205.637 78.4475 205.595 78.3604 205.558L78.0005 205.409C77.8722 205.355 77.7481 205.31 77.624 205.268L77.3219 205.165C76.9326 205.031 76.5205 204.976 76.1097 205.003C75.7633 205.035 75.4268 205.136 75.1209 205.301C74.8303 205.462 74.5778 205.684 74.3803 205.951C74.1725 206.222 74.013 206.527 73.9087 206.853C73.7758 207.238 73.7141 207.645 73.7266 208.053C73.7392 208.39 73.8344 208.72 74.0038 209.012C74.1859 209.306 74.4302 209.556 74.7196 209.745C75.0714 209.972 75.4529 210.15 75.8532 210.274L77.0034 210.647L78.6128 205.686Z" fill="white"/>
<path d="M62.9986 193.068L61.8567 192.7C61.7489 192.667 61.6336 192.667 61.5257 192.7C61.4125 192.738 61.3169 192.816 61.2568 192.919L56.2259 201.305C56.1583 201.407 56.1317 201.531 56.1514 201.652C56.1708 201.764 56.2243 201.866 56.3045 201.946L57.165 202.774L56.9292 203.187L53.0526 200.862C52.4112 200.498 51.819 200.053 51.2901 199.538C50.9384 199.19 50.6574 198.777 50.4626 198.322C50.3134 197.98 50.2674 197.602 50.3302 197.234C50.3912 196.892 50.5146 196.563 50.6943 196.266C50.8783 195.95 51.118 195.669 51.4018 195.438C51.6718 195.224 51.9789 195.062 52.3079 194.959C52.6482 194.855 53.003 194.806 53.3587 194.814C53.7514 194.825 54.1409 194.887 54.5172 195C54.1324 194.753 53.7866 194.451 53.4911 194.102C53.2196 193.785 53.0066 193.422 52.8623 193.031C52.7298 192.66 52.6762 192.265 52.705 191.872C52.7388 191.458 52.8707 191.058 53.0898 190.706C53.3071 190.341 53.5872 190.017 53.9173 189.75C54.1974 189.52 54.519 189.346 54.8647 189.237C55.202 189.133 55.5545 189.086 55.9073 189.1C56.2779 189.113 56.6458 189.169 57.0037 189.266C57.3822 189.37 57.7506 189.509 58.1042 189.68C58.4683 189.847 58.8232 190.033 59.1675 190.238L63.2675 192.72L62.9986 193.068ZM56.3789 196.291C55.9541 196.025 55.4984 195.813 55.0219 195.658C54.6755 195.544 54.3095 195.501 53.9462 195.534C53.6446 195.566 53.358 195.682 53.1188 195.869C52.8645 196.071 52.651 196.319 52.4899 196.601C52.2734 196.944 52.1167 197.322 52.0265 197.718C51.9586 198.043 51.9728 198.38 52.0679 198.699C52.1768 199.025 52.3611 199.321 52.6057 199.563C52.9079 199.87 53.2503 200.134 53.6235 200.349L54.571 200.92L57.0906 196.721L56.3789 196.291ZM58.5138 190.677C57.8951 190.237 57.1444 190.024 56.3872 190.073C55.7832 190.158 55.2577 190.572 54.8109 191.314C54.5751 191.683 54.4057 192.09 54.3103 192.518C54.235 192.863 54.2594 193.224 54.3806 193.556C54.5222 193.915 54.7428 194.237 55.0261 194.499C55.3928 194.847 55.7998 195.15 56.2383 195.401L57.4422 196.125L60.1356 191.636L58.5138 190.677Z" fill="white"/>
<path d="M51.2984 185.716L50.2227 185.195C50.1195 185.146 50.0036 185.132 49.8917 185.153C49.7734 185.173 49.6669 185.236 49.5938 185.331L43.4251 192.919C43.3431 193.009 43.2987 193.128 43.3009 193.25C43.3024 193.363 43.3401 193.474 43.4085 193.564L44.145 194.508L43.8553 194.863L36.8509 189.162L38.6837 186.912L39.143 187.284L38.4189 189.084C38.3826 189.166 38.367 189.255 38.3734 189.344C38.3771 189.387 38.3902 189.429 38.4116 189.466C38.4331 189.503 38.4624 189.535 38.4976 189.56L41.8405 192.278L44.8483 188.579L42.6928 186.825C42.625 186.76 42.5343 186.724 42.4404 186.726C42.3589 186.737 42.281 186.767 42.2128 186.812L40.9427 187.64L40.5496 187.325L43.2099 184.057L43.5988 184.376L43.0651 185.774C43.0275 185.854 43.0091 185.942 43.0113 186.031C43.0289 186.123 43.0825 186.205 43.1603 186.258L45.3158 188.012L48.6256 183.925L44.7076 180.739C44.6765 180.709 44.6394 180.687 44.5987 180.672C44.558 180.658 44.5147 180.653 44.4718 180.656C44.3828 180.669 44.2986 180.705 44.2277 180.76L42.4818 182.034L42.0225 181.662L44.0126 179.217L51.5714 185.369L51.2984 185.716Z" fill="white"/>
<path d="M38.39 178.906L38.0011 178.493L38.8575 176.809C38.9006 176.72 38.9219 176.622 38.9196 176.523C38.9307 176.422 38.9307 176.319 38.9196 176.217C38.8741 175.969 38.8119 175.725 38.7334 175.485C38.6525 175.242 38.5586 175.003 38.452 174.769C38.3519 174.551 38.2372 174.339 38.1086 174.136C38.0038 173.961 37.8819 173.796 37.7446 173.644C37.5043 173.383 37.2252 173.161 36.9171 172.986C36.6444 172.834 36.3428 172.741 36.0317 172.713C35.7289 172.685 35.4238 172.731 35.1422 172.846C34.8176 172.979 34.5213 173.172 34.2692 173.416C33.9036 173.734 33.6691 174.177 33.6114 174.658C33.5679 175.152 33.6387 175.651 33.8183 176.114C33.9052 176.346 34.0044 176.565 34.1079 176.776L34.4265 177.396C34.5299 177.603 34.6375 177.81 34.7409 178.021C34.849 178.231 34.9457 178.446 35.0305 178.666C35.2798 179.277 35.3543 179.944 35.2456 180.594C35.1168 181.235 34.7828 181.816 34.2941 182.249C33.9386 182.583 33.5152 182.835 33.0529 182.99C32.602 183.142 32.1253 183.204 31.6503 183.172C31.1604 183.136 30.6823 183.004 30.2436 182.783C29.7663 182.547 29.3371 182.224 28.9776 181.831C28.7696 181.609 28.5735 181.375 28.3901 181.132C28.2081 180.888 28.0343 180.644 27.8771 180.396C27.7199 180.148 27.5751 179.903 27.4634 179.659C27.3517 179.415 27.211 179.171 27.0952 178.935L29.2424 176.929L29.6272 177.343L28.7997 178.882C28.7537 178.97 28.7309 179.068 28.7335 179.167C28.7263 179.261 28.7263 179.355 28.7335 179.448C28.7536 179.629 28.7981 179.805 28.8659 179.974C28.934 180.157 29.0141 180.335 29.1059 180.507C29.1933 180.681 29.2943 180.847 29.4079 181.004C29.5023 181.149 29.6074 181.288 29.7223 181.418C29.943 181.661 30.2015 181.868 30.4877 182.03C30.7279 182.164 30.9924 182.248 31.2656 182.278C31.5212 182.305 31.7798 182.276 32.0227 182.191C32.2729 182.103 32.5014 181.962 32.6929 181.778C32.8702 181.613 33.0296 181.43 33.1687 181.231C33.3049 181.038 33.4058 180.823 33.4666 180.594C33.5287 180.344 33.5483 180.086 33.5245 179.829C33.4944 179.516 33.4105 179.211 33.2763 178.927C33.1894 178.72 33.0942 178.513 32.9949 178.319L32.6929 177.719C32.5936 177.516 32.4902 177.305 32.3909 177.094C32.2916 176.883 32.1964 176.652 32.1013 176.399C31.9995 176.114 31.9166 175.822 31.8531 175.526C31.7868 175.224 31.7658 174.913 31.791 174.604C31.823 174.278 31.9142 173.962 32.0599 173.669C32.2358 173.32 32.4758 173.007 32.7674 172.746C33.1122 172.424 33.5132 172.167 33.9507 171.989C34.4077 171.801 34.9011 171.718 35.3946 171.745C35.9511 171.771 36.4962 171.912 36.9957 172.159C37.6224 172.479 38.1837 172.914 38.6506 173.441C38.8423 173.647 39.0167 173.869 39.1719 174.103C39.3416 174.347 39.5029 174.608 39.6643 174.885C39.8256 175.162 39.9828 175.448 40.1318 175.746C40.2807 176.044 40.4214 176.337 40.5455 176.635L38.39 178.906Z" fill="white"/>
<path d="M31.0421 165.527L30.0533 164.604C29.9719 164.525 29.8646 164.478 29.7513 164.472C29.6313 164.464 29.5123 164.499 29.4162 164.571L21.0175 170.52L22.6517 172.833C22.6754 172.873 22.7071 172.908 22.7448 172.935C22.7826 172.962 22.8255 172.981 22.871 172.99C22.9589 173 23.048 172.991 23.1316 172.961L25.0555 172.316L25.3782 172.779L22.9372 174.505L16.9422 166.023L19.3832 164.294L19.7142 164.762L18.473 166.358C18.4181 166.428 18.3786 166.508 18.3572 166.594C18.3502 166.637 18.3525 166.681 18.3639 166.723C18.3753 166.766 18.3956 166.805 18.4234 166.838L20.0783 169.18L28.477 163.247C28.579 163.178 28.6513 163.073 28.6797 162.954C28.7056 162.843 28.6954 162.727 28.6508 162.623L28.1129 161.382L28.4853 161.117L31.4269 165.254L31.0421 165.527Z" fill="white"/>
<path d="M21.0506 149.28L20.3679 148.3C20.2994 148.209 20.206 148.14 20.099 148.101C19.9871 148.058 19.8633 148.058 19.7515 148.101L10.6494 151.717C10.5348 151.757 10.439 151.838 10.3805 151.945C10.3266 152.046 10.3063 152.162 10.3226 152.276L10.5046 153.455L10.0909 153.624L8.32838 149.193L8.74211 149.024L9.41649 150C9.48692 150.095 9.58322 150.166 9.6937 150.207C9.80692 150.25 9.93213 150.25 10.0454 150.207L14.0089 148.631L11.7996 143.079L7.83604 144.655C7.72304 144.694 7.62963 144.776 7.57539 144.883C7.5249 144.988 7.50348 145.105 7.51333 145.222L7.69123 146.393L7.2775 146.562L5.52329 142.152L5.93702 141.982L6.6114 142.959C6.67463 143.057 6.77175 143.13 6.88447 143.162C6.99769 143.205 7.12291 143.205 7.23614 143.162L16.3382 139.546C16.4517 139.505 16.5461 139.424 16.603 139.318C16.6528 139.214 16.6701 139.097 16.6526 138.983L16.4789 137.808L16.8926 137.638L18.6675 142.045L18.2537 142.214L17.5752 141.238C17.5077 141.143 17.4122 141.072 17.3022 141.035C17.1903 140.992 17.0665 140.992 16.9546 141.035L12.5195 142.802L14.7288 148.354L19.1474 146.595C19.2627 146.556 19.3578 146.473 19.4122 146.364C19.4616 146.258 19.4789 146.14 19.4618 146.024L19.2881 144.87L19.7018 144.701L21.4602 149.127L21.0506 149.28Z" fill="white"/>
<path d="M14.8943 128.342C15.0857 129.157 15.1041 130.003 14.9481 130.825C14.8041 131.558 14.4942 132.249 14.042 132.844C13.5664 133.457 12.9727 133.969 12.296 134.349C11.5304 134.784 10.7011 135.096 9.83849 135.272C9.00691 135.46 8.15019 135.51 7.30234 135.421C6.52597 135.34 5.77199 135.113 5.0806 134.751C4.41187 134.392 3.82892 133.892 3.37191 133.286C2.88178 132.62 2.54419 131.855 2.38309 131.044C2.17809 130.198 2.16396 129.318 2.34171 128.466C2.51025 127.728 2.84251 127.036 3.31398 126.443C3.79672 125.845 4.39465 125.35 5.07233 124.987C5.80854 124.588 6.59873 124.298 7.41819 124.127C7.92837 124.015 8.44775 123.952 8.96967 123.936C9.48838 123.923 10.007 123.965 10.517 124.06C11.0204 124.155 11.5106 124.309 11.9775 124.52C12.4434 124.726 12.8735 125.005 13.2518 125.347C13.6475 125.707 13.9853 126.125 14.253 126.588C14.557 127.136 14.7733 127.728 14.8943 128.342ZM14.1661 128.342C14.0579 127.779 13.7991 127.256 13.4173 126.828C13.0428 126.424 12.5777 126.115 12.0602 125.926C11.4735 125.715 10.855 125.606 10.2315 125.604C9.50496 125.598 8.78024 125.678 8.07187 125.839C7.27302 126.005 6.49471 126.257 5.75086 126.592C5.12436 126.865 4.55246 127.249 4.06283 127.726C3.63635 128.144 3.31824 128.659 3.13608 129.228C2.95952 129.831 2.94525 130.47 3.09471 131.081C3.20153 131.669 3.47762 132.212 3.88907 132.645C4.28044 133.043 4.75922 133.345 5.28747 133.526C5.87153 133.727 6.48628 133.823 7.10375 133.812C7.78692 133.806 8.4677 133.73 9.13516 133.584C9.9249 133.416 10.6946 133.165 11.4314 132.835C12.0593 132.56 12.6357 132.179 13.1359 131.71C13.5736 131.297 13.9032 130.783 14.0958 130.212C14.2938 129.601 14.3182 128.946 14.1661 128.322V128.342Z" fill="white"/>
<path d="M12.3498 119.083L11.9775 117.929C11.9437 117.821 11.8773 117.725 11.7872 117.656C11.6941 117.584 11.5781 117.547 11.4603 117.553L1.73767 117.937C1.61706 117.937 1.5005 117.981 1.41082 118.062C1.32723 118.139 1.26946 118.24 1.24533 118.351L1.02605 119.526H0.566808L0.417871 115.749L8.23323 112.601L9.96675 111.951V111.926L0.144808 108.832L0 105.108H0.459247L0.765402 106.25C0.80155 106.361 0.869114 106.458 0.959856 106.531C1.05451 106.607 1.17422 106.644 1.29498 106.635L11.0673 106.254C11.1882 106.253 11.3044 106.207 11.3941 106.126C11.4754 106.044 11.5314 105.941 11.5555 105.828L11.783 104.661H12.2381L12.4284 109.415H11.9692L11.6506 108.269C11.616 108.16 11.5498 108.063 11.4603 107.992C11.3684 107.914 11.2495 107.875 11.1293 107.884L0.99709 108.298V108.335L2.34999 108.749L10.4881 111.326L12.5567 112.154V112.605L2.69338 116.564L1.34462 117.085V117.114L11.4438 116.7C11.5646 116.698 11.6805 116.653 11.7706 116.572C11.8496 116.493 11.9041 116.392 11.9278 116.283L12.2092 115.108H12.6684L12.8256 119.067L12.3498 119.083Z" fill="white"/>
<path d="M12.1264 100.847L12.0023 99.6554C11.9867 99.5429 11.9377 99.4377 11.8616 99.3534C11.7806 99.2659 11.6701 99.2114 11.5513 99.2003L1.86592 97.9881C1.74541 97.9699 1.62233 97.9948 1.51839 98.0585C1.42456 98.1223 1.3524 98.2132 1.31153 98.3191L0.897799 99.4403L0.442694 99.3865L1.5639 90.4254L4.46001 90.7854L4.38554 91.3728L2.47825 91.7121C2.38995 91.7246 2.30611 91.7587 2.23415 91.8114C2.20002 91.8373 2.17195 91.8703 2.15194 91.9082C2.13193 91.9461 2.12045 91.9879 2.11829 92.0306L1.58459 96.3043L6.31352 96.8959L6.65691 94.1365C6.67738 94.0456 6.66102 93.9504 6.6114 93.8717C6.55744 93.8093 6.49126 93.7586 6.41695 93.7227L5.04337 93.0815L5.10956 92.585L9.28409 93.1063L9.22204 93.6028L7.7533 93.8924C7.66566 93.9047 7.5821 93.9373 7.5092 93.9875C7.47392 94.017 7.44533 94.0536 7.42535 94.095C7.40538 94.1364 7.39446 94.1815 7.39335 94.2275L7.04996 96.9869L12.2754 97.6406L12.9042 92.6305C12.9119 92.5883 12.9112 92.545 12.9019 92.5031C12.8927 92.4612 12.8752 92.4215 12.8504 92.3864C12.7908 92.3184 12.7156 92.2659 12.6312 92.2334L10.6246 91.4308L10.6991 90.8433L13.8227 91.257L12.6146 100.925L12.1264 100.847Z" fill="white"/>
<path d="M16.1479 79.8551L16.2596 78.6553C16.2691 78.5399 16.2431 78.4244 16.1851 78.3243C16.1233 78.2218 16.0262 78.1453 15.9121 78.1092L6.63209 75.0187C6.51786 74.9732 6.39051 74.9732 6.27628 75.0187C6.17078 75.0645 6.08143 75.1409 6.01977 75.238L5.39918 76.2682L4.96063 76.1192L6.47488 71.5684L6.90929 71.7132L6.79345 72.9005C6.78643 73.0162 6.81379 73.1313 6.87206 73.2315C6.93547 73.3343 7.03392 73.4107 7.14925 73.4466L16.4292 76.5412C16.5409 76.585 16.665 76.585 16.7767 76.5412C16.8834 76.4952 16.9731 76.4171 17.0333 76.3178L17.6621 75.3001L18.0965 75.4449L16.5823 79.9957L16.1479 79.8551Z" fill="white"/>
<path d="M18.9074 71.6428L19.1185 70.4513C19.1432 70.3386 19.1301 70.2208 19.0812 70.1162C19.0328 70.0099 18.9476 69.9247 18.8413 69.8763L10.1116 65.6605C10.0032 65.6047 9.87825 65.59 9.75988 65.6192C9.64999 65.648 9.55171 65.7101 9.47855 65.7971L8.65109 66.7858L8.23736 66.5872L9.57785 63.8154L19.7432 62.1853L21.1747 61.9826L13.6448 58.3502C13.5386 58.2924 13.4141 58.2775 13.2973 58.3088C13.1897 58.3403 13.0935 58.402 13.0201 58.4867L12.2174 59.3969L11.8037 59.1983L13.529 55.6197L13.9427 55.8183L13.7276 57.0098C13.7065 57.1227 13.7194 57.2393 13.7648 57.3449C13.8091 57.4559 13.8953 57.5451 14.0048 57.5931L22.0642 61.4862L23.8432 62.6363L23.5867 63.17L12.6229 64.9241L11.0549 65.1475V65.1723L19.2343 69.1192C19.3406 69.177 19.465 69.1918 19.5818 69.1606C19.6898 69.13 19.7863 69.0681 19.859 68.9827L20.6617 68.0725L21.0754 68.2711L19.3543 71.8414L18.9074 71.6428Z" fill="white"/>
<path d="M27.4923 55.5866L28.0178 54.3455C28.0553 54.2383 28.0553 54.1216 28.0178 54.0145C27.9866 53.8981 27.9127 53.7976 27.8109 53.7332L19.346 47.8957L17.7407 50.2249C17.7115 50.2602 17.69 50.3013 17.6779 50.3455C17.6658 50.3898 17.6632 50.4361 17.6704 50.4814C17.6884 50.5685 17.7283 50.6497 17.7862 50.7172L19.0523 52.3017L18.7337 52.7651L16.2513 51.0688L22.1511 42.5174L24.6128 44.2136L24.2901 44.6894L22.358 44.0647C22.2754 44.0374 22.188 44.0275 22.1014 44.0357C22.0583 44.0427 22.0172 44.0593 21.9814 44.0844C21.9456 44.1095 21.9159 44.1423 21.8946 44.1805L20.2645 46.5428L28.7584 52.3762C28.8564 52.4508 28.9793 52.4849 29.1017 52.4713C29.2135 52.4573 29.3178 52.408 29.3996 52.3307L30.3802 51.3957L30.7567 51.6563L27.8606 55.8472L27.4923 55.5866Z" fill="white"/>
<path d="M34.2113 46.3442L34.8029 45.3058C34.8563 45.2057 34.878 45.0917 34.865 44.979C34.8482 44.8604 34.7895 44.7518 34.6995 44.6728L27.5172 38.0286C27.4306 37.9435 27.3157 37.8934 27.1945 37.8879C27.0805 37.8833 26.9679 37.9136 26.8717 37.9748L25.8871 38.6492L25.5519 38.3389L31.6834 31.7194L33.8141 33.6929L33.4004 34.1066L31.6503 33.2791C31.5703 33.2401 31.4828 33.2189 31.3938 33.2171C31.3508 33.219 31.3087 33.2299 31.2702 33.2491C31.2317 33.2684 31.1977 33.2955 31.1704 33.3288L28.2619 36.4772L31.762 39.7165L33.6486 37.6728C33.7172 37.6111 33.7588 37.5249 33.7645 37.4328C33.7593 37.3499 33.7352 37.2693 33.6941 37.197L32.9536 35.8773L33.297 35.5091L36.3875 38.3678L36.0441 38.736L34.683 38.1155C34.6053 38.0732 34.519 38.0491 34.4306 38.0451C34.3844 38.0503 34.3398 38.0647 34.2993 38.0874C34.2588 38.1102 34.2232 38.1408 34.1948 38.1775L32.304 40.2171L36.1724 43.7958L39.6022 40.0723C39.6338 40.0427 39.659 40.0067 39.6761 39.9669C39.6932 39.927 39.7018 39.884 39.7015 39.8407C39.6927 39.7522 39.6629 39.6671 39.6146 39.5924L38.452 37.7721L38.8658 37.3584L41.1785 39.4973L34.5588 46.6504L34.2113 46.3442Z" fill="white"/>
<path d="M43.6526 36.502L44.3891 35.5587C44.4551 35.4668 44.4925 35.3574 44.4966 35.2443C44.5013 35.1245 44.4599 35.0075 44.3808 34.9175L38.2328 27.3093C38.1603 27.2121 38.054 27.1457 37.9349 27.1231C37.8233 27.1018 37.7079 27.1148 37.6039 27.1603L36.5323 27.6899L36.2427 27.3299L39.8132 24.434C40.2254 24.0934 40.6671 23.7902 41.133 23.5279C41.4939 23.3286 41.8754 23.169 42.2708 23.0521C42.581 22.962 42.9037 22.9229 43.2265 22.9363C43.4997 22.9489 43.7692 23.0047 44.025 23.1018C44.2601 23.1939 44.4792 23.3224 44.6745 23.4824C44.8668 23.6396 45.0428 23.8156 45.2 24.0078C45.4946 24.3602 45.7091 24.7724 45.8288 25.2159C45.9345 25.6107 45.9682 26.0213 45.9281 26.428C45.8947 26.8055 45.8025 27.1753 45.6551 27.5244C45.5323 27.8313 45.3696 28.1206 45.171 28.3849L50.5247 29.7129C50.6144 29.736 50.7056 29.7526 50.7977 29.7626C50.9012 29.7626 51.0087 29.7833 51.1122 29.7874C51.2113 29.7959 51.3109 29.7959 51.4101 29.7874C51.4976 29.7789 51.583 29.7551 51.6624 29.7171L52.6347 29.2496L52.9202 29.6054L51.439 30.8051C51.2669 30.9491 51.0796 31.074 50.8805 31.1775C50.731 31.2496 50.5699 31.2944 50.4047 31.3099C50.2394 31.322 50.0733 31.3081 49.9124 31.2685C49.7386 31.2271 49.5317 31.1733 49.3 31.1071L44.1656 29.7129L42.8417 30.4204L45.6509 33.8956C45.7219 33.9894 45.8225 34.0565 45.9364 34.0859C46.0466 34.1058 46.1603 34.0929 46.2633 34.0487L47.4589 33.4322L47.7444 33.788L43.9422 36.8619L43.6526 36.502ZM42.4569 29.9363C42.5407 29.8937 42.6222 29.8468 42.701 29.7957L43.0196 29.5764C43.1355 29.4937 43.243 29.4151 43.3423 29.3365L43.5947 29.142C43.9213 28.8892 44.193 28.5724 44.3932 28.2111C44.5561 27.9047 44.6546 27.5682 44.6828 27.2224C44.703 26.8911 44.6566 26.5591 44.5463 26.246C44.4313 25.9244 44.262 25.6249 44.0457 25.3607C43.7979 25.0308 43.4906 24.7502 43.1396 24.5332C42.8503 24.3582 42.5217 24.2586 42.1839 24.2436C41.8324 24.2439 41.4857 24.3246 41.1702 24.4795C40.7872 24.6505 40.4295 24.8732 40.107 25.1414L39.1678 25.8985L42.4569 29.9363Z" fill="white"/>
<path d="M55.0922 27.7892L55.9404 26.9328C56.0209 26.8483 56.0742 26.7417 56.0935 26.6266C56.1104 26.509 56.0824 26.3893 56.0149 26.2915L50.8184 18.0172C50.7573 17.9116 50.6581 17.8331 50.5412 17.798C50.4323 17.7629 50.315 17.7629 50.2061 17.798L49.0683 18.2117L48.8242 17.8228L52.8788 15.2826L53.1229 15.6715L52.2747 16.4989C52.196 16.5819 52.1454 16.6876 52.1299 16.8009C52.1094 16.922 52.136 17.0464 52.2044 17.1484L57.4009 25.4227C57.46 25.5284 57.5579 25.607 57.6739 25.642C57.7829 25.6771 57.9001 25.6771 58.009 25.642L59.1427 25.2531L59.3868 25.642L55.3322 28.1863L55.0922 27.7892Z" fill="white"/>
<path d="M68.0296 21.4221C67.2807 21.7878 66.4629 21.9909 65.6299 22.0179C64.8831 22.0364 64.1418 21.885 63.462 21.5752C62.7588 21.2455 62.1286 20.7785 61.6085 20.2017C61.018 19.5481 60.5323 18.8071 60.1687 18.0048C59.8049 17.2345 59.5688 16.4101 59.4695 15.5639C59.3783 14.7879 59.4359 14.0016 59.6391 13.2471C59.8396 12.5153 60.1999 11.8371 60.6941 11.2613C61.2351 10.6365 61.9077 10.1392 62.6635 9.80502C63.4427 9.42055 64.2977 9.21423 65.1666 9.201C65.9247 9.20316 66.6727 9.37566 67.3552 9.70574C68.0448 10.0471 68.6594 10.5225 69.1632 11.1041C69.7127 11.7361 70.1684 12.4439 70.5161 13.2058C70.7328 13.6804 70.9072 14.1733 71.0374 14.6786C71.1653 15.1809 71.2388 15.6954 71.2567 16.2134C71.2762 16.7243 71.2331 17.2356 71.1284 17.7359C71.0252 18.2395 70.8407 18.723 70.5823 19.1674C70.3104 19.6309 69.9685 20.0495 69.5687 20.4085C69.1116 20.8246 68.5923 21.1666 68.0296 21.4221ZM67.8848 20.7105C68.411 20.4829 68.8647 20.1151 69.1963 19.6473C69.5104 19.1941 69.7106 18.6719 69.7796 18.1248C69.8562 17.5066 69.8268 16.8798 69.6928 16.2714C69.5446 15.5656 69.3141 14.8796 69.006 14.2276C68.6686 13.4847 68.2525 12.7801 67.7648 12.126C67.3584 11.5779 66.8584 11.1059 66.2878 10.7317C65.7911 10.4084 65.223 10.211 64.6329 10.1567C64.005 10.1153 63.3773 10.2394 62.8124 10.5166C62.2544 10.7535 61.7782 11.1491 61.443 11.6543C61.1395 12.1259 60.9484 12.661 60.8845 13.2182C60.8191 13.8314 60.8597 14.4514 61.0044 15.0509C61.1601 15.7165 61.3848 16.364 61.6747 16.983C62.0139 17.7146 62.43 18.408 62.9159 19.0515C63.3232 19.6031 63.8212 20.0816 64.3887 20.4664C64.8827 20.8008 65.4508 21.0095 66.0437 21.0746C66.6792 21.125 67.3163 20.999 67.8848 20.7105Z" fill="white"/>
<path d="M76.5855 17.0326L77.6322 16.4493C77.731 16.3921 77.8092 16.3052 77.8557 16.201C77.904 16.0929 77.9113 15.9708 77.8763 15.8577L75.183 6.45393C75.1543 6.3353 75.0819 6.23187 74.9802 6.16434C74.8865 6.10029 74.7752 6.06702 74.6617 6.06918L73.4701 6.13538L73.3419 5.69684L77.7563 4.43501C78.2695 4.28057 78.7958 4.17393 79.3285 4.11645C79.7409 4.06964 80.1573 4.06964 80.5697 4.11645C80.8907 4.15509 81.2035 4.24447 81.4965 4.38124C81.7419 4.50114 81.9678 4.65734 82.1667 4.84459C82.3486 5.02185 82.5009 5.22718 82.6177 5.45275C82.733 5.67174 82.8259 5.90184 82.8949 6.13952C83.0291 6.58005 83.0658 7.04449 83.0024 7.50063C82.9443 7.90473 82.8154 8.29545 82.6218 8.65489C82.4402 8.98657 82.2116 9.29032 81.9433 9.55679C81.7071 9.78791 81.4446 9.99063 81.1614 10.1608L85.5676 13.4705C85.6427 13.5267 85.7215 13.5778 85.8034 13.6236C85.8927 13.6775 85.9853 13.7259 86.0806 13.7684C86.171 13.8113 86.2652 13.8459 86.3619 13.8718C86.4453 13.8958 86.5318 13.9069 86.6184 13.9049L87.6983 13.8511L87.8224 14.2938L85.9896 14.8192C85.7772 14.8856 85.5578 14.9272 85.3359 14.9434C85.1693 14.9535 85.0024 14.9324 84.8435 14.8813C84.6866 14.8265 84.5387 14.7484 84.405 14.6496C84.2602 14.542 84.0947 14.4138 83.9044 14.2607L79.7216 10.9758L78.228 11.1082L79.4692 15.4026C79.4966 15.5163 79.5623 15.6171 79.6554 15.688C79.75 15.7502 79.8607 15.7833 79.974 15.7832L81.3103 15.6839L81.4385 16.1224L76.7138 17.4463L76.5855 17.0326ZM78.046 10.5207C78.1405 10.5152 78.2346 10.5027 78.3273 10.4835L78.7079 10.409C78.8445 10.3801 78.9727 10.347 79.0968 10.3139L79.4071 10.2311C79.8054 10.1262 80.1783 9.94183 80.5035 9.68918C80.774 9.4708 80.9965 9.19899 81.1572 8.89071C81.3074 8.59338 81.3934 8.26777 81.4096 7.93504C81.4301 7.59464 81.3923 7.25325 81.2979 6.92557C81.193 6.53066 81.0178 6.15787 80.7807 5.82509C80.5813 5.55356 80.3185 5.33485 80.0153 5.18797C79.7004 5.04276 79.3567 4.97062 79.0099 4.97697C78.5894 4.9858 78.1719 5.05121 77.7688 5.17142L76.6062 5.5024L78.046 10.5207Z" fill="white"/>
</svg>
