<svg width="248" height="71" viewBox="0 0 248 71" fill="none" xmlns="http://www.w3.org/2000/svg">
<path d="M98.64 18.8C99.4667 18.96 100.08 19.24 100.48 19.64C100.907 20.04 101.12 20.5067 101.12 21.04C101.12 21.92 100.867 22.56 100.36 22.96C99.88 23.36 99.1067 23.52 98.04 23.44C95.64 23.2533 93.76 23.1333 92.4 23.08C91.0667 23 89.3067 22.9467 87.12 22.92C86.1333 27.8267 85.2267 32.76 84.4 37.72C84.1067 39.5333 83.8 41.64 83.48 44.04C83.16 46.4133 82.9467 48.3333 82.84 49.8C82.7867 50.5733 82.4667 51.1733 81.88 51.6C81.2933 52 80.5867 52.2 79.76 52.2C78.88 52.2 78.2 51.9867 77.72 51.56C77.24 51.1333 77 50.5733 77 49.88C77 49.24 77.0933 48.1867 77.28 46.72C77.4933 45.2267 77.7333 43.6667 78 42.04C78.2933 40.4133 78.52 39 78.68 37.8C78.9733 35.7733 79.3067 33.76 79.68 31.76C80.0533 29.76 80.4267 27.8667 80.8 26.08C80.88 25.68 80.9733 25.2267 81.08 24.72C81.1867 24.1867 81.3067 23.6 81.44 22.96C78.8267 23.04 76.7733 23.2533 75.28 23.6C73.7867 23.9467 72.72 24.44 72.08 25.08C71.4667 25.6933 71.16 26.4933 71.16 27.48C71.16 28.3867 71.4267 29.2533 71.96 30.08C72.0667 30.2667 72.12 30.4667 72.12 30.68C72.12 31.1867 71.8133 31.6667 71.2 32.12C70.6133 32.5467 70 32.76 69.36 32.76C68.9067 32.76 68.5333 32.6267 68.24 32.36C67.7067 31.9067 67.2667 31.2667 66.92 30.44C66.5733 29.5867 66.4 28.6267 66.4 27.56C66.4 25.2933 67.1333 23.48 68.6 22.12C70.0933 20.7333 72.3467 19.72 75.36 19.08C78.4 18.44 82.2933 18.12 87.04 18.12C89.9733 18.12 92.3067 18.1733 94.04 18.28C95.8 18.3867 97.3333 18.56 98.64 18.8ZM95.9416 52.2C94.2882 52.2 92.9682 51.6 91.9816 50.4C90.9949 49.2 90.5016 47.6267 90.5016 45.68C90.5016 43.5467 90.9949 41.5333 91.9816 39.64C92.9682 37.72 94.2749 36.1867 95.9016 35.04C97.5549 33.8667 99.3016 33.28 101.142 33.28C101.728 33.28 102.115 33.4 102.302 33.64C102.515 33.8533 102.688 34.2533 102.822 34.84C103.382 34.7333 103.968 34.68 104.582 34.68C105.888 34.68 106.542 35.1467 106.542 36.08C106.542 36.64 106.342 37.9733 105.942 40.08C105.328 43.1467 105.022 45.28 105.022 46.48C105.022 46.88 105.115 47.2 105.302 47.44C105.515 47.68 105.782 47.8 106.102 47.8C106.608 47.8 107.222 47.48 107.942 46.84C108.662 46.1733 109.635 45.1067 110.862 43.64C111.182 43.2667 111.542 43.08 111.942 43.08C112.288 43.08 112.555 43.24 112.742 43.56C112.955 43.88 113.062 44.32 113.062 44.88C113.062 45.9467 112.808 46.7733 112.302 47.36C111.208 48.72 110.048 49.8667 108.822 50.8C107.595 51.7333 106.408 52.2 105.262 52.2C104.382 52.2 103.568 51.9067 102.822 51.32C102.102 50.7067 101.555 49.88 101.182 48.84C99.7949 51.08 98.0482 52.2 95.9416 52.2ZM97.3816 48.16C97.9682 48.16 98.5282 47.8133 99.0616 47.12C99.5949 46.4267 99.9816 45.5067 100.222 44.36L101.702 37C100.582 37.0267 99.5416 37.4533 98.5816 38.28C97.6482 39.08 96.9016 40.1467 96.3416 41.48C95.7816 42.8133 95.5016 44.2267 95.5016 45.72C95.5016 46.5467 95.6616 47.16 95.9816 47.56C96.3282 47.96 96.7949 48.16 97.3816 48.16ZM117.251 53.08C115.864 53.08 114.797 52.76 114.051 52.12C113.331 51.48 112.971 50.76 112.971 49.96C112.971 49.2667 113.224 48.6667 113.731 48.16C114.237 47.6533 114.984 47.4 115.971 47.4C116.317 47.4 116.717 47.44 117.171 47.52C117.651 47.5733 118.011 47.6133 118.251 47.64C118.224 46.9467 118.064 46.2933 117.771 45.68C117.504 45.0667 117.157 44.48 116.731 43.92C116.304 43.3333 115.904 42.8267 115.531 42.4C114.704 43.9733 113.877 45.28 113.051 46.32C112.251 47.36 111.371 48.3467 110.411 49.28C109.931 49.76 109.424 50 108.891 50C108.464 50 108.117 49.8533 107.851 49.56C107.584 49.24 107.451 48.8533 107.451 48.4C107.451 47.8667 107.637 47.3733 108.011 46.92L108.531 46.28C109.997 44.4667 111.104 42.9733 111.851 41.8C112.304 41.0267 112.837 40 113.451 38.72C114.064 37.4133 114.664 36.0667 115.251 34.68C115.757 33.5067 116.811 32.92 118.411 32.92C119.157 32.92 119.677 32.9867 119.971 33.12C120.264 33.2533 120.411 33.4667 120.411 33.76C120.411 33.92 120.357 34.1733 120.251 34.52C120.144 34.8667 119.997 35.2133 119.811 35.56C119.331 36.52 119.091 37.3333 119.091 38C119.091 38.4 119.224 38.84 119.491 39.32C119.784 39.8 120.224 40.4 120.811 41.12C121.664 42.24 122.304 43.2 122.731 44C123.184 44.7733 123.411 45.6267 123.411 46.56C123.411 46.8267 123.384 47.2 123.331 47.68C124.637 47.1733 126.171 45.8267 127.931 43.64C128.251 43.2667 128.611 43.08 129.011 43.08C129.357 43.08 129.624 43.24 129.811 43.56C130.024 43.88 130.131 44.32 130.131 44.88C130.131 45.8933 129.877 46.72 129.371 47.36C128.037 49.0133 126.757 50.1467 125.531 50.76C124.331 51.3467 122.837 51.6667 121.051 51.72C119.984 52.6267 118.717 53.08 117.251 53.08ZM144.721 43.08C145.068 43.08 145.334 43.24 145.521 43.56C145.734 43.88 145.841 44.32 145.841 44.88C145.841 45.9467 145.588 46.7733 145.081 47.36C143.934 48.7733 142.681 49.9333 141.321 50.84C139.961 51.7467 138.401 52.2 136.641 52.2C131.201 52.2 128.481 48.3733 128.481 40.72C128.481 39.5467 128.521 38.36 128.601 37.16H127.041C126.241 37.16 125.694 37.0133 125.401 36.72C125.134 36.4267 125.001 35.96 125.001 35.32C125.001 33.8267 125.601 33.08 126.801 33.08H129.081C129.534 30.1467 130.228 27.4667 131.161 25.04C132.094 22.6133 133.214 20.68 134.521 19.24C135.854 17.8 137.281 17.08 138.801 17.08C139.921 17.08 140.801 17.5733 141.441 18.56C142.081 19.5467 142.401 20.7867 142.401 22.28C142.401 26.4133 140.668 30.0133 137.201 33.08H141.681C142.108 33.08 142.414 33.1733 142.601 33.36C142.788 33.5467 142.881 33.8933 142.881 34.4C142.881 36.24 141.374 37.16 138.361 37.16H133.481C133.428 38.4933 133.401 39.5333 133.401 40.28C133.401 43.0533 133.721 45 134.361 46.12C135.028 47.24 136.068 47.8 137.481 47.8C138.628 47.8 139.641 47.4533 140.521 46.76C141.401 46.0667 142.441 45.0267 143.641 43.64C143.961 43.2667 144.321 43.08 144.721 43.08ZM137.721 20.92C137.321 20.92 136.868 21.4267 136.361 22.44C135.881 23.4267 135.414 24.8133 134.961 26.6C134.534 28.36 134.174 30.32 133.881 32.48C135.454 31.12 136.628 29.6 137.401 27.92C138.201 26.2133 138.601 24.6667 138.601 23.28C138.601 21.7067 138.308 20.92 137.721 20.92ZM163.064 43.16C163.411 43.16 163.677 43.3333 163.864 43.68C164.077 44 164.184 44.4133 164.184 44.92C164.184 45.5333 164.091 46.0133 163.904 46.36C163.717 46.7067 163.424 47.0133 163.024 47.28L155.344 52.44C154.331 57.96 152.997 62.2933 151.344 65.44C149.717 68.6133 147.637 70.2 145.104 70.2C143.744 70.2 142.637 69.7733 141.784 68.92C140.931 68.0933 140.504 67 140.504 65.64C140.504 64.3867 140.784 63.1067 141.344 61.8C141.931 60.4933 142.997 58.9867 144.544 57.28C146.117 55.6 148.331 53.6667 151.184 51.48L151.304 50.56C151.491 49.5733 151.704 48.16 151.944 46.32C151.411 48.24 150.664 49.7067 149.704 50.72C148.744 51.7067 147.731 52.2 146.664 52.2C145.464 52.2 144.477 51.6533 143.704 50.56C142.957 49.44 142.584 48.0533 142.584 46.4C142.584 44.4 142.717 42.5733 142.984 40.92C143.251 39.24 143.691 37.4667 144.304 35.6C144.571 34.8 144.944 34.2267 145.424 33.88C145.904 33.5333 146.664 33.36 147.704 33.36C148.291 33.36 148.691 33.4533 148.904 33.64C149.144 33.8267 149.264 34.1067 149.264 34.48C149.264 34.6933 149.117 35.4133 148.824 36.64C148.557 37.6267 148.344 38.52 148.184 39.32C147.971 40.4133 147.784 41.4667 147.624 42.48C147.464 43.4667 147.384 44.28 147.384 44.92C147.384 45.9333 147.664 46.44 148.224 46.44C148.624 46.44 149.117 46.04 149.704 45.24C150.317 44.44 150.957 43.2267 151.624 41.6C152.317 39.9733 152.984 37.9733 153.624 35.6C153.837 34.8 154.157 34.2267 154.584 33.88C155.037 33.5333 155.704 33.36 156.584 33.36C157.197 33.36 157.624 33.44 157.864 33.6C158.104 33.76 158.224 34.0267 158.224 34.4C158.224 35.0667 157.877 37.36 157.184 41.28L156.144 47.72C158.197 46.1733 160.197 44.76 162.144 43.48C162.491 43.2667 162.797 43.16 163.064 43.16ZM145.544 66.32C146.211 66.32 146.957 65.5467 147.784 64C148.611 62.4533 149.437 59.88 150.264 56.28C148.211 58.0133 146.717 59.5867 145.784 61C144.877 62.44 144.424 63.6933 144.424 64.76C144.424 65.2133 144.504 65.5867 144.664 65.88C144.851 66.1733 145.144 66.32 145.544 66.32ZM195.285 18.84C196.031 18.9467 196.538 19.1733 196.805 19.52C197.098 19.8667 197.245 20.32 197.245 20.88C197.245 22.72 196.258 23.5733 194.285 23.44L192.885 23.32C191.311 23.1867 189.738 23.08 188.165 23C186.618 22.92 184.991 22.88 183.285 22.88H181.485C181.165 26.8267 180.831 30.4267 180.485 33.68L187.365 33.56C188.351 33.56 189.005 33.7333 189.325 34.08C189.671 34.4267 189.845 34.8933 189.845 35.48C189.845 36.3867 189.578 37.1067 189.045 37.64C188.511 38.1467 187.751 38.4 186.765 38.4H179.925L179.685 40.12C179.125 44.52 177.925 47.6533 176.085 49.52C174.271 51.3867 171.765 52.32 168.565 52.32C166.751 52.32 165.085 51.9333 163.565 51.16C162.045 50.36 160.925 49.4 160.205 48.28C159.911 47.8267 159.765 47.28 159.765 46.64C159.765 46 159.911 45.44 160.205 44.96C160.525 44.48 160.911 44.24 161.365 44.24C161.685 44.24 161.991 44.3467 162.285 44.56C162.605 44.7733 163.005 45.1867 163.485 45.8C164.765 47.48 166.351 48.32 168.245 48.32C169.765 48.32 171.031 47.7067 172.045 46.48C173.085 45.2267 173.751 43.2667 174.045 40.6L174.285 38.4H172.365C171.751 38.4 171.218 38.2267 170.765 37.88C170.338 37.5333 170.125 37.04 170.125 36.4C170.125 35.5733 170.338 34.9467 170.765 34.52C171.191 34.0667 171.818 33.84 172.645 33.84C173.391 33.84 174.125 33.8267 174.845 33.8C175.165 30.8667 175.511 27.3067 175.885 23.12C173.005 23.3867 170.978 23.8533 169.805 24.52C168.631 25.1867 168.045 26.1733 168.045 27.48C168.045 28.3867 168.311 29.2533 168.845 30.08C169.005 30.32 169.085 30.56 169.085 30.8C169.085 31.28 168.818 31.7067 168.285 32.08C167.751 32.4267 167.151 32.6 166.485 32.6C165.765 32.6 165.151 32.3867 164.645 31.96C164.325 31.6933 164.018 31.1467 163.725 30.32C163.431 29.4933 163.285 28.5733 163.285 27.56C163.285 24.2533 164.978 21.8533 168.365 20.36C171.778 18.8667 176.751 18.12 183.285 18.12C187.818 18.12 191.818 18.36 195.285 18.84ZM205.361 43.08C205.708 43.08 205.975 43.24 206.161 43.56C206.375 43.88 206.481 44.32 206.481 44.88C206.481 45.9467 206.228 46.7733 205.721 47.36C204.575 48.7733 203.321 49.9333 201.961 50.84C200.628 51.7467 199.108 52.2 197.401 52.2C195.055 52.2 193.308 51.1333 192.161 49C191.041 46.8667 190.481 44.1067 190.481 40.72C190.481 37.4667 190.895 33.76 191.721 29.6C192.575 25.44 193.815 21.8667 195.441 18.88C197.095 15.8933 199.055 14.4 201.321 14.4C202.601 14.4 203.601 15 204.321 16.2C205.068 17.3733 205.441 19.0667 205.441 21.28C205.441 24.4533 204.561 28.1333 202.801 32.32C201.041 36.5067 198.655 40.6533 195.641 44.76C195.828 45.8533 196.135 46.64 196.561 47.12C196.988 47.5733 197.548 47.8 198.241 47.8C199.335 47.8 200.295 47.4933 201.121 46.88C201.948 46.24 203.001 45.16 204.281 43.64C204.601 43.2667 204.961 43.08 205.361 43.08ZM200.441 18.36C199.828 18.36 199.135 19.4667 198.361 21.68C197.588 23.8933 196.908 26.64 196.321 29.92C195.735 33.2 195.415 36.3467 195.361 39.36C197.255 36.24 198.761 33.12 199.881 30C201.001 26.8533 201.561 23.9867 201.561 21.4C201.561 19.3733 201.188 18.36 200.441 18.36ZM223.648 39.72C223.995 39.72 224.261 39.8933 224.448 40.24C224.635 40.5867 224.728 41.0267 224.728 41.56C224.728 42.84 224.341 43.6 223.568 43.84C221.968 44.4 220.208 44.72 218.288 44.8C217.781 47.04 216.781 48.84 215.288 50.2C213.795 51.5333 212.101 52.2 210.208 52.2C208.608 52.2 207.235 51.8133 206.088 51.04C204.968 50.2667 204.115 49.24 203.528 47.96C202.941 46.68 202.648 45.2933 202.648 43.8C202.648 41.7733 203.035 39.9733 203.808 38.4C204.581 36.8 205.648 35.56 207.008 34.68C208.368 33.7733 209.875 33.32 211.528 33.32C213.555 33.32 215.181 34.0267 216.408 35.44C217.661 36.8267 218.395 38.5467 218.608 40.6C219.861 40.52 221.355 40.2533 223.088 39.8C223.301 39.7467 223.488 39.72 223.648 39.72ZM210.528 47.96C211.381 47.96 212.115 47.6133 212.728 46.92C213.368 46.2267 213.795 45.2267 214.008 43.92C213.181 43.36 212.541 42.6267 212.088 41.72C211.661 40.8133 211.448 39.8533 211.448 38.84C211.448 38.4133 211.488 37.9867 211.568 37.56H211.368C210.301 37.56 209.408 38.08 208.688 39.12C207.995 40.1333 207.648 41.5733 207.648 43.44C207.648 44.9067 207.928 46.0267 208.488 46.8C209.075 47.5733 209.755 47.96 210.528 47.96ZM245.646 33.32C247.112 33.32 247.846 33.7867 247.846 34.72C247.846 35.04 247.739 35.48 247.526 36.04C245.366 41.08 243.326 45.1467 241.406 48.24C240.446 49.76 239.579 50.8 238.806 51.36C238.032 51.92 237.152 52.2 236.166 52.2C235.099 52.2 234.299 51.7867 233.766 50.96C233.259 50.1333 232.939 48.7733 232.806 46.88C232.752 46.1867 232.699 45.1467 232.646 43.76C231.819 46.0533 231.059 47.8133 230.366 49.04C229.699 50.24 229.032 51.0667 228.366 51.52C227.726 51.9733 226.952 52.2 226.046 52.2C224.952 52.2 224.086 51.7733 223.446 50.92C222.832 50.0667 222.446 48.72 222.286 46.88C221.966 43.1467 221.806 39.88 221.806 37.08V35.68C221.832 34.7733 222.059 34.16 222.486 33.84C222.912 33.4933 223.606 33.32 224.566 33.32C225.259 33.32 225.766 33.48 226.086 33.8C226.432 34.0933 226.606 34.6 226.606 35.32C226.606 38.3867 226.792 42.3733 227.166 47.28C228.046 45.4133 228.859 43.6267 229.606 41.92C230.352 40.2133 231.219 38.0267 232.206 35.36C232.499 34.56 232.846 34.0267 233.246 33.76C233.672 33.4667 234.166 33.32 234.726 33.32C235.472 33.32 236.032 33.48 236.406 33.8C236.779 34.0933 236.966 34.6 236.966 35.32V41.52C236.966 44.1867 236.979 46.1067 237.006 47.28C238.232 45.1467 239.232 43.2933 240.006 41.72C240.806 40.1467 241.699 38.0267 242.686 35.36C242.979 34.56 243.366 34.0267 243.846 33.76C244.326 33.4667 244.926 33.32 245.646 33.32Z" fill="white"/>
<path d="M5.85175 34.9217C5.86236 35.2684 5.78453 35.7575 5.56875 36.1115C5.14779 36.794 5.28222 37.3634 5.61827 38.0058C7.65938 41.8746 9.67573 45.7544 11.7168 49.6233C12.0777 50.3021 12.4102 50.9773 11.9609 51.7073C11.823 51.93 11.4303 52.1416 11.1827 52.1088C10.3266 51.992 10.0153 51.2876 9.72172 50.5357C8.08388 46.3457 6.41774 42.163 4.74099 37.9875C4.63133 37.7138 4.39078 37.3415 4.16438 37.3014C2.37443 36.9802 1.36626 35.71 0.825031 34.126C0.35455 32.7464 0.14584 31.2499 0.00434248 29.7863C-0.0451818 29.279 0.336863 28.4432 0.743669 28.2498C1.1434 28.06 1.94286 28.3374 2.36028 28.6768C4.28112 30.2353 5.79161 32.6843 5.85175 34.9217Z" fill="#FF4135"/>
<path d="M54.8606 29.9937C54.8748 29.9572 55.041 29.5776 55.0552 29.5411L54.8606 29.4462C54.0824 31.0412 53.1485 32.9829 52.3703 34.5779C52.2429 34.5195 52.1156 34.4574 51.9882 34.399C52.6745 32.7566 53.5164 30.7711 54.2062 29.1323L53.9904 29.0301C53.2086 30.6251 52.2712 32.5632 51.4894 34.1582C51.3479 34.0888 51.2064 34.0195 51.0649 33.9538C51.7654 32.3223 52.6214 30.3441 53.3254 28.7089L53.1167 28.6104C52.3278 30.2054 51.3833 32.1434 50.5909 33.7348C50.4636 33.6691 50.3362 33.6034 50.2053 33.5377C50.9057 31.9062 51.7618 29.928 52.4658 28.2965L52.2358 28.187C51.3161 30.0156 50.223 32.1763 49.3846 34.045C49.1583 34.545 49.2007 35.3298 49.42 35.8444C49.6606 36.3992 49.604 36.7824 49.367 37.2386C47.1384 41.5235 44.8992 45.8048 42.6847 50.1007C42.4619 50.535 42.2425 51.0387 42.2461 51.5095C42.2496 51.8818 42.522 52.4329 42.8227 52.5716C43.1198 52.714 43.6964 52.5643 43.9759 52.3234C44.3261 52.0241 44.549 51.5241 44.7329 51.0679C46.5405 46.5786 48.3163 42.0747 50.1346 37.589C50.269 37.2569 50.6051 36.8371 50.9022 36.786C51.9175 36.6109 52.4481 35.9612 52.8124 35.0706C53.4987 33.3771 54.1779 31.6872 54.8606 29.9937Z" fill="#FF4135"/>
<path d="M31.2119 18.7449C36.0794 18.7449 40.0237 22.8145 40.0237 27.8367C40.0237 28.0045 40.0201 28.1724 40.0095 28.3403C40.3633 27.3841 40.5614 26.3475 40.5614 25.2635C40.5614 20.5005 36.8188 16.6426 32.2059 16.6426C28.718 16.6426 25.7288 18.8507 24.4766 21.9823C26.0897 20.0041 28.5093 18.7449 31.2119 18.7449Z" fill="#FF4135"/>
<path d="M27.3956 49.8852C23.9855 49.8852 20.6745 49.4654 17.4873 48.6223C17.2113 48.5493 17.0203 48.2938 17.0203 48.0018V39.9685C16.3765 40.1693 15.7115 40.2715 15.0287 40.2715C11.2437 40.2715 8.16254 37.0925 8.16254 33.1871C8.16254 30.4753 9.64119 28.0372 11.9688 26.8437C11.9476 26.5991 11.9405 26.3546 11.9405 26.1174C11.9405 21.201 15.8176 17.2044 20.579 17.2044C22.4078 17.2044 24.1943 17.8067 25.6658 18.9126C27.3603 17.0548 29.7091 16 32.1995 16C36.9751 16 40.891 19.8652 41.1599 24.7231C44.4108 25.2889 46.887 28.2525 46.887 31.7089C46.887 35.6143 43.8059 38.7933 40.0208 38.7933C39.4583 38.7933 38.9065 38.7239 38.3688 38.5852V48.0018C38.3688 48.3011 38.1672 48.5603 37.8877 48.626C34.3043 49.4654 30.8022 49.8852 27.3956 49.8852ZM18.262 47.5018C24.166 48.9763 30.5051 48.9727 37.1272 47.4872V37.7129C37.1272 37.5012 37.2298 37.3041 37.396 37.1837C37.5658 37.0633 37.7816 37.0377 37.9726 37.118C38.627 37.3808 39.3169 37.5158 40.0208 37.5158C43.1231 37.5158 45.6489 34.9098 45.6489 31.7089C45.6489 28.7197 43.3885 26.1794 40.5054 25.9276C40.1835 25.8984 39.9394 25.621 39.9394 25.2889C39.9394 25.2816 39.9394 25.2597 39.9394 25.2524C39.9394 20.8616 36.4692 17.2811 32.203 17.2811C29.8825 17.2811 27.7034 18.3432 26.2248 20.1973C26.1186 20.3287 25.9665 20.4127 25.8038 20.4273C25.6375 20.4419 25.4748 20.3908 25.3475 20.2813C24.0103 19.1206 22.3194 18.4819 20.579 18.4819C16.5003 18.4819 13.1786 21.9054 13.1786 26.1174C13.1786 26.4495 13.2034 26.7962 13.2494 27.1503C13.2883 27.4386 13.1327 27.716 12.8744 27.8255C10.7661 28.7307 9.40418 30.833 9.40418 33.1871C9.40418 36.388 11.9299 38.994 15.0323 38.994C15.8494 38.994 16.6418 38.8152 17.3847 38.4611C17.5757 38.3699 17.7985 38.3845 17.979 38.5049C18.1558 38.6217 18.2655 38.8261 18.2655 39.0451V47.5018H18.262Z" fill="#FF4135"/>
<path d="M42.377 25.7383C43.3816 26.8807 43.9936 28.399 43.9936 30.067C43.9936 33.6256 41.1955 36.5126 37.7465 36.5126C36.9116 36.5126 36.1157 36.3411 35.3905 36.0381C36.5331 37.3375 38.1851 38.1551 40.0211 38.1551C43.4701 38.1551 46.2682 35.268 46.2682 31.7094C46.2682 29.0085 44.6587 26.6982 42.377 25.7383Z" fill="#FF4135"/>
<path d="M21.6393 42.5895C21.2962 42.5895 21.0202 42.3048 21.0202 41.9508V41.0127C21.0202 40.6587 21.2962 40.374 21.6393 40.374C21.9824 40.374 22.2583 40.6587 22.2583 41.0127V41.9508C22.2619 42.3011 21.9824 42.5895 21.6393 42.5895Z" fill="#FF4135"/>
<path d="M21.6393 49.3787C21.2962 49.3787 21.0202 49.094 21.0202 48.74V43.8638C21.0202 43.5098 21.2962 43.2251 21.6393 43.2251C21.9824 43.2251 22.2583 43.5098 22.2583 43.8638V48.74C22.2619 49.0904 21.9824 49.3787 21.6393 49.3787Z" fill="#FF4135"/>
<path d="M24.6712 49.3782C24.328 49.3782 24.0521 49.0935 24.0521 48.7395V41.0127C24.0521 40.6587 24.328 40.374 24.6712 40.374C25.0143 40.374 25.2902 40.6587 25.2902 41.0127V48.7358C25.2902 49.0899 25.0143 49.3782 24.6712 49.3782Z" fill="#FF4135"/>
<path d="M27.6964 49.3782C27.3533 49.3782 27.0773 49.0935 27.0773 48.7395V41.0127C27.0773 40.6587 27.3533 40.374 27.6964 40.374C28.0395 40.374 28.3154 40.6587 28.3154 41.0127V48.7358C28.3154 49.0899 28.036 49.3782 27.6964 49.3782Z" fill="#FF4135"/>
<path d="M30.7216 49.3782C30.3784 49.3782 30.1025 49.0935 30.1025 48.7395V41.0127C30.1025 40.6587 30.3784 40.374 30.7216 40.374C31.0647 40.374 31.3406 40.6587 31.3406 41.0127V48.7358C31.3406 49.0899 31.0647 49.3782 30.7216 49.3782Z" fill="#FF4135"/>
<path d="M33.7499 49.3782C33.4068 49.3782 33.1309 49.0935 33.1309 48.7395V41.0127C33.1309 40.6587 33.4068 40.374 33.7499 40.374C34.093 40.374 34.369 40.6587 34.369 41.0127V48.7358C34.369 49.0899 34.0895 49.3782 33.7499 49.3782Z" fill="#FF4135"/>
<path d="M15.0376 40.2719C11.2525 40.2719 8.17142 37.0929 8.17142 33.1876C8.17142 32.8335 8.44734 32.5488 8.79047 32.5488C9.1336 32.5488 9.40952 32.8335 9.40952 33.1876C9.40952 36.3885 11.9353 38.9945 15.0376 38.9945C17.0716 38.9945 18.9536 37.8557 19.9476 36.0235C20.1138 35.7169 20.4924 35.6037 20.793 35.7789C21.0902 35.9505 21.1963 36.341 21.03 36.6513C19.8132 38.885 17.5174 40.2719 15.0376 40.2719Z" fill="#FF4135"/>
<path d="M40.1773 28.4752C40.1171 28.4752 40.0534 28.4642 39.9933 28.446C39.6679 28.3401 39.4839 27.9824 39.5865 27.643C39.82 26.8765 39.9367 26.0736 39.9367 25.2597C39.9367 20.8579 36.4665 17.2774 32.2003 17.2774C29.0343 17.2774 26.2185 19.2338 25.0264 22.2595C24.899 22.588 24.5347 22.7449 24.2198 22.6099C23.9015 22.4785 23.7493 22.1025 23.8767 21.7777C25.2598 18.2702 28.5249 16 32.2003 16C37.1492 16 41.1784 20.1535 41.1784 25.2633C41.1784 26.205 41.0404 27.1357 40.7716 28.0262C40.6867 28.3 40.4426 28.4752 40.1773 28.4752Z" fill="#FF4135"/>
<path d="M13.2201 30.0382C12.9796 30.0382 12.7532 29.8922 12.6506 29.6513C12.1801 28.5344 11.9431 27.3409 11.9431 26.1146C11.9431 21.1982 15.8202 17.2017 20.5816 17.2017C22.6156 17.2017 24.593 17.9462 26.146 19.2967C26.4077 19.523 26.4396 19.9281 26.2203 20.1982C26.0009 20.4683 25.6083 20.5011 25.3465 20.2748C24.0164 19.1215 22.3255 18.4828 20.5816 18.4828C16.5029 18.4828 13.1812 21.9063 13.1812 26.1182C13.1812 27.1694 13.3864 28.1913 13.7861 29.1476C13.9206 29.4724 13.7791 29.8484 13.4642 29.9871C13.3864 30.0236 13.3015 30.0382 13.2201 30.0382Z" fill="#FF4135"/>
<path d="M40.0208 38.794C38.0752 38.794 36.2145 37.9399 34.9163 36.4471C34.6863 36.1844 34.7076 35.7792 34.9623 35.542C35.217 35.3047 35.6096 35.3266 35.8395 35.5894C36.9043 36.8121 38.4325 37.5129 40.0243 37.5129C43.1267 37.5129 45.6524 34.9069 45.6524 31.706C45.6524 28.7934 43.5441 26.3152 40.746 25.9465C40.4064 25.9027 40.1658 25.5816 40.2083 25.2312C40.2507 24.8808 40.562 24.6326 40.9016 24.6764C44.3153 25.129 46.8905 28.1474 46.8905 31.7023C46.887 35.615 43.8059 38.794 40.0208 38.794Z" fill="#FF4135"/>
<path d="M28.0791 38.1628C26.3104 38.1628 24.5416 38.035 22.7835 37.7832C22.4439 37.7358 22.2069 37.4109 22.2565 37.0605C22.3024 36.7101 22.6173 36.4693 22.9569 36.5167C26.3564 37.0058 29.8054 37.0058 33.2049 36.5167C33.5445 36.4693 33.8557 36.7101 33.9053 37.0605C33.9513 37.4109 33.7178 37.7321 33.3782 37.7832C31.6165 38.035 29.8478 38.1628 28.0791 38.1628Z" fill="#FF4135"/>
</svg>
